<?xml version="1.0" encoding="UTF-8"?>
<mxfile host="app.diagrams.net">
  <diagram name="Arquitectura de Componentes" id="arquitectura-componentes">
    <mxGraphModel dx="1000" dy="1000" grid="1" gridSize="10" guides="1" tooltips="1" connect="1" arrows="1" fold="1" page="1" pageScale="1" pageWidth="850" pageHeight="1100">
      <root>
        <mxCell id="0" />
        <mxCell id="1" parent="0" />
        <mxCell id="2" value="RootLayout (app/layout.tsx)" style="rounded=1;whiteSpace=wrap;html=1;fillColor=#dae8fc;strokeColor=#6c8ebf;" vertex="1" parent="1">
          <mxGeometry x="40" y="40" width="200" height="40" as="geometry" />
        </mxCell>
        <mxCell id="3" value="ClientLayout (components/ClientLayout.tsx)" style="rounded=1;whiteSpace=wrap;html=1;fillColor=#fff2cc;strokeColor=#d6b656;" vertex="1" parent="1">
          <mxGeometry x="300" y="40" width="220" height="40" as="geometry" />
        </mxCell>
        <mxCell id="4" value="DashboardLayout (layout/dashboard-layout.tsx)" style="rounded=1;whiteSpace=wrap;html=1;fillColor=#d5e8d4;strokeColor=#82b366;" vertex="1" parent="1">
          <mxGeometry x="600" y="40" width="240" height="40" as="geometry" />
        </mxCell>
        <mxCell id="5" value="MainSidebar (components/main-sidebar.tsx)" style="rounded=1;whiteSpace=wrap;html=1;fillColor=#e1d5e7;strokeColor=#9673a6;" vertex="1" parent="1">
          <mxGeometry x="900" y="40" width="220" height="40" as="geometry" />
        </mxCell>
        <mxCell id="6" value="ThemeProvider (components/theme-provider.tsx)" style="rounded=1;whiteSpace=wrap;html=1;fillColor=#f8cecc;strokeColor=#b85450;" vertex="1" parent="1">
          <mxGeometry x="300" y="120" width="220" height="40" as="geometry" />
        </mxCell>
        <mxCell id="7" value="Toaster (components/ui/sonner.tsx)" style="rounded=1;whiteSpace=wrap;html=1;fillColor=#dae8fc;strokeColor=#6c8ebf;" vertex="1" parent="1">
          <mxGeometry x="600" y="120" width="220" height="40" as="geometry" />
        </mxCell>
        <!-- Flechas -->
        <mxCell id="8" style="edgeStyle=orthogonalEdgeStyle;endArrow=block;html=1;" edge="1" parent="1" source="2" target="3">
          <mxGeometry relative="1" as="geometry" />
        </mxCell>
        <mxCell id="9" style="edgeStyle=orthogonalEdgeStyle;endArrow=block;html=1;" edge="1" parent="1" source="3" target="4">
          <mxGeometry relative="1" as="geometry" />
        </mxCell>
        <mxCell id="10" style="edgeStyle=orthogonalEdgeStyle;endArrow=block;html=1;" edge="1" parent="1" source="4" target="5">
          <mxGeometry relative="1" as="geometry" />
        </mxCell>
        <mxCell id="11" style="edgeStyle=orthogonalEdgeStyle;endArrow=block;html=1;" edge="1" parent="1" source="3" target="6">
          <mxGeometry relative="1" as="geometry" />
        </mxCell>
        <mxCell id="12" style="edgeStyle=orthogonalEdgeStyle;endArrow=block;html=1;" edge="1" parent="1" source="4" target="7">
          <mxGeometry relative="1" as="geometry" />
        </mxCell>
      </root>
    </mxGraphModel>
  </diagram>
</mxfile> 